<?xml version="1.0" standalone="no"?>
<!DOCTYPE svg PUBLIC "-//W3C//DTD SVG 20010904//EN"
 "http://www.w3.org/TR/2001/REC-SVG-20010904/DTD/svg10.dtd">
<svg version="1.0" xmlns="http://www.w3.org/2000/svg"
 width="273.000000pt" height="273.000000pt" viewBox="0 0 273.000000 273.000000"
 preserveAspectRatio="xMidYMid meet">
<metadata>
Created by potrace 1.11, written by Peter Selinger 2001-2013
</metadata>
<g transform="translate(0.000000,273.000000) scale(0.100000,-0.100000)"
fill="#000000" stroke="none">
<path d="M359 2646 c-3 -3 -74 -6 -157 -7 -139 0 -178 -7 -136 -23 14 -5 15
-125 10 -1238 -3 -678 -8 -1243 -11 -1255 -4 -12 -13 -24 -21 -27 -55 -21 41
-24 704 -21 394 1 980 3 1302 4 l585 1 0 1253 c0 688 -1 1266 -3 1282 l-2 30
-467 -3 c-830 -5 -1583 -3 -1692 4 -58 3 -109 4 -112 0z m2136 -319 c4 -74 5
-367 1 -653 -3 -285 -6 -727 -6 -980 l-1 -462 -152 -3 c-84 -1 -411 -2 -727
-1 -316 1 -758 2 -982 2 l-406 0 4 203 c2 111 6 285 9 387 3 102 5 512 6 912
l0 728 1124 0 1123 0 7 -133z m-968 -2223 c-3 -3 -12 -4 -19 -1 -8 3 -5 6 6 6
11 1 17 -2 13 -5z"/>
<path d="M534 2327 c-10 -23 -40 -91 -67 -151 -32 -72 -45 -112 -38 -119 19
-19 59 -9 93 22 45 43 145 90 220 103 45 8 90 8 167 -1 59 -6 131 -11 162 -11
110 0 148 -10 165 -42 21 -40 31 -314 23 -648 -3 -146 -8 -414 -11 -596 l-4
-331 -28 -47 c-15 -26 -41 -62 -57 -81 -16 -18 -26 -36 -21 -39 7 -4 379 -10
430 -7 7 1 12 14 12 32 0 22 -9 38 -31 57 -46 38 -59 77 -59 184 0 51 0 102
-1 113 -5 63 3 251 18 390 12 116 17 269 18 560 0 220 5 407 9 416 5 13 30 18
104 24 232 18 486 4 536 -29 14 -9 38 -16 54 -16 16 0 43 -5 59 -11 19 -6 43
-7 63 -2 l32 8 -41 55 c-23 30 -41 58 -41 63 0 15 -94 125 -110 129 -8 3 -35
-7 -60 -21 l-45 -26 -711 0 -710 0 -40 26 c-65 42 -70 42 -90 -4z"/>
<path d="M754 1810 c-12 -5 -36 -22 -52 -38 -17 -17 -39 -33 -50 -36 -10 -4
-25 -17 -32 -30 -8 -15 -40 -37 -84 -56 -39 -18 -82 -42 -94 -53 -66 -61 -95
-195 -74 -337 7 -43 6 -46 -23 -60 -17 -9 -40 -34 -54 -61 l-25 -46 23 -31
c18 -25 30 -32 56 -32 27 0 33 -3 29 -15 -5 -11 6 -20 36 -33 l42 -17 -6 -70
c-6 -66 -9 -72 -46 -106 -32 -29 -41 -46 -46 -83 -6 -43 -5 -46 17 -47 64 -4
262 1 277 5 13 5 38 -16 92 -74 45 -49 78 -76 84 -71 6 4 70 9 141 10 72 1
149 4 171 7 34 5 44 2 53 -13 10 -16 10 -16 11 5 0 13 7 36 16 51 l16 27 -82
79 c-45 44 -89 81 -99 83 -12 2 -20 15 -24 38 -8 48 3 176 16 192 8 10 7 16
-3 22 -8 5 -10 17 -6 36 13 54 17 177 7 206 -10 28 -9 29 54 60 75 37 71 28
80 210 l7 127 -54 -20 c-29 -12 -75 -32 -101 -45 -27 -13 -56 -24 -64 -24 -9
0 -31 -10 -50 -21 l-34 -21 -25 23 c-19 18 -27 20 -36 11 -10 -10 -6 -17 16
-35 44 -35 33 -61 -28 -65 l-49 -3 7 40 c4 25 2 41 -4 41 -5 0 -10 -18 -10
-40 0 -22 -4 -40 -8 -40 -15 0 -36 51 -34 81 3 32 -24 99 -39 99 -6 0 -4 -10
3 -22 6 -13 15 -45 18 -73 4 -27 9 -56 11 -64 3 -9 -8 -18 -28 -24 -18 -5 -33
-14 -33 -18 0 -13 21 -11 52 5 16 9 30 11 33 5 4 -5 24 -9 45 -9 21 0 42 -4
45 -10 9 -14 -21 -72 -62 -120 l-36 -42 -54 59 c-29 32 -67 84 -83 115 -17 32
-41 65 -55 74 -30 19 -85 28 -85 14 0 -6 11 -10 24 -10 31 0 72 -34 96 -78 10
-21 41 -68 69 -107 55 -74 59 -85 37 -85 -16 0 -31 -18 -23 -27 3 -3 17 6 31
20 14 14 28 21 31 16 4 -5 1 -9 -4 -9 -6 0 -11 -8 -11 -18 0 -15 8 -19 36 -20
19 -1 47 -10 62 -20 39 -28 99 -35 128 -15 23 15 24 14 24 -8 0 -19 -2 -21
-10 -9 -7 11 -10 7 -10 -17 0 -17 -3 -39 -7 -49 -5 -14 -2 -16 15 -12 15 4 22
2 22 -8 0 -7 6 -11 13 -9 8 4 11 -5 10 -27 -2 -52 -4 -54 -13 -30 l-10 23 -29
-33 c-33 -37 -33 -45 -1 -28 26 14 23 7 -18 -48 -28 -37 -23 -55 8 -27 11 10
20 14 20 8 0 -6 -18 -23 -40 -38 -22 -15 -40 -29 -40 -30 0 -1 10 0 23 2 16 3
26 -4 39 -27 18 -31 5 -43 -20 -18 -9 9 -12 9 -12 -1 0 -8 -6 -11 -15 -7 -8 3
-15 0 -15 -7 0 -8 -4 -6 -10 3 -15 23 -13 -4 5 -73 8 -32 15 -60 15 -63 0 -12
-58 12 -77 33 -27 28 -28 36 -8 53 8 7 15 25 15 41 0 22 5 29 19 29 21 0 35
13 25 23 -4 3 -14 1 -24 -6 -47 -29 -90 44 -88 150 1 46 1 46 56 5 17 -13 32
-20 32 -15 0 5 -20 24 -45 43 -35 26 -45 40 -45 62 0 25 3 28 24 22 26 -6 66
2 66 14 0 16 -120 5 -154 -13 -32 -17 -36 -18 -59 -2 -20 13 -35 15 -71 8 -42
-8 -47 -6 -79 23 -42 38 -67 117 -67 207 0 58 1 61 18 47 25 -23 62 -40 62
-30 0 5 -18 22 -40 37 -48 33 -52 68 -9 73 21 2 35 -7 68 -44 22 -26 41 -42
41 -36 0 22 -86 102 -109 102 -19 0 -21 4 -15 23 19 64 67 117 105 117 11 0
19 4 19 8 0 16 75 45 123 48 34 2 59 11 83 29 38 29 44 18 13 -27 l-21 -29 28
-30 c15 -16 25 -32 21 -35 -3 -4 0 -16 8 -28 8 -11 15 -28 15 -37 0 -9 7 -22
15 -29 13 -11 13 -7 -1 26 -9 22 -20 43 -24 48 -5 5 -6 15 -3 23 3 8 -5 25
-18 39 -19 20 -21 28 -12 42 6 9 17 16 26 14 8 -1 17 4 20 12 7 18 57 9 57
-10 0 -8 -5 -14 -12 -14 -6 0 -9 -3 -6 -6 4 -3 16 0 28 6 18 10 21 9 16 -2 -3
-7 -9 -21 -12 -30 -4 -10 -10 -18 -15 -18 -5 0 -9 -4 -9 -10 0 -20 21 -9 30
15 12 31 30 33 30 3 l0 -22 20 22 c14 15 20 35 20 69 0 70 -16 92 -80 114 -61
20 -75 22 -106 9z m350 -250 c9 -22 14 -45 10 -52 -4 -6 -8 -37 -9 -68 -2 -52
-18 -95 -38 -98 -37 -6 -57 -17 -57 -31 0 -14 -2 -14 -10 -1 -5 8 -10 12 -10
8 0 -17 -5 -24 -29 -36 -25 -13 -45 -7 -22 7 7 5 12 12 11 17 -1 5 4 10 11 13
7 2 9 -1 4 -10 -4 -8 4 0 18 17 14 17 43 38 65 48 l40 18 -2 89 c-1 61 -5 89
-13 89 -6 0 -15 5 -19 12 -4 7 -3 8 4 4 7 -4 12 -2 12 3 0 24 17 9 34 -29z
m36 0 c-5 -22 -8 -27 -9 -13 -1 21 9 56 14 51 2 -2 0 -19 -5 -38z m-100 10 c0
-5 -5 -10 -11 -10 -5 0 -7 5 -4 10 3 6 8 10 11 10 2 0 4 -4 4 -10z m117 -92
c-2 -18 -4 -6 -4 27 0 33 2 48 4 33 2 -15 2 -42 0 -60z m-92 64 c-6 -5 -38
-21 -72 -35 -66 -28 -89 -19 -28 10 19 9 35 20 35 25 0 4 17 8 37 8 21 0 33
-4 28 -8z m5 -39 c0 -10 -5 -25 -10 -33 -7 -11 -10 -7 -10 18 0 17 5 32 10 32
6 0 10 -8 10 -17z m-31 -25 c-1 -31 -1 -32 -9 -8 -8 25 -8 25 -10 -5 -2 -30
-2 -30 -10 -5 l-8 25 -1 -27 c-1 -22 -9 -31 -33 -42 -18 -7 -34 -12 -36 -11
-2 2 0 19 3 39 5 24 13 36 24 36 9 1 27 7 41 15 36 21 40 19 39 -17z m88 -10
c-3 -8 -6 -5 -6 6 -1 11 2 17 5 13 3 -3 4 -12 1 -19z m-199 -10 c2 -12 -1 -16
-11 -12 -21 8 -31 -14 -16 -34 7 -9 10 -14 5 -10 -4 3 -16 -2 -27 -13 -10 -10
-26 -19 -35 -19 -9 0 -23 -8 -31 -17 -18 -24 12 39 44 90 18 28 30 37 46 35
12 -2 23 -11 25 -20z m152 -33 c0 -28 -19 -35 -21 -7 -1 11 -4 9 -9 -8 -4 -14
-8 -19 -9 -12 -1 6 -5 12 -11 12 -5 0 -7 -7 -4 -15 4 -8 2 -15 -4 -15 -6 0
-13 6 -15 13 -3 6 -6 2 -6 -11 -1 -29 -36 -27 -36 2 0 12 17 25 55 41 30 14
56 24 58 25 1 0 2 -11 2 -25z m47 -17 c-3 -8 -6 -5 -6 6 -1 11 2 17 5 13 3 -3
4 -12 1 -19z m-217 -49 c0 -24 17 -25 23 -1 4 14 5 13 6 -3 1 -23 -16 -45 -35
-45 -12 0 -23 47 -16 68 6 18 22 4 22 -19z m210 1 c-8 -5 -19 -10 -25 -10 -5
0 -3 5 5 10 8 5 20 10 25 10 6 0 3 -5 -5 -10z m-256 -47 c-9 -53 -16 -55 -13
-5 2 23 7 42 11 42 5 0 6 -17 2 -37z m56 -33 c-6 -11 -13 -20 -15 -20 -3 0 -5
9 -5 20 0 11 7 20 15 20 13 0 14 -4 5 -20z m-20 -37 c0 -3 -6 -3 -12 0 -7 2
-19 -3 -26 -12 -11 -14 -12 -13 -2 6 6 14 16 20 25 17 8 -4 15 -8 15 -11z m70
-23 c0 -17 5 -30 12 -30 9 0 9 -3 0 -12 -7 -7 -12 -28 -13 -47 -1 -36 -1 -36
-9 -8 -5 16 -6 35 -3 43 10 27 -18 46 -56 39 -42 -8 -39 -2 15 25 52 25 54 25
54 -10z m60 17 c0 -8 -7 -14 -15 -14 -11 0 -12 4 -4 14 6 7 13 13 15 13 2 0 4
-6 4 -13z m-636 -85 c6 -18 26 -44 43 -58 27 -21 42 -25 88 -23 30 1 58 -1 62
-5 4 -4 -35 -6 -87 -5 -61 2 -108 -3 -133 -11 -35 -13 -39 -13 -58 7 -26 26
-20 67 17 107 32 34 54 30 68 -12z m636 31 c0 -5 -5 -15 -10 -23 -8 -12 -10
-11 -10 8 0 12 5 22 10 22 6 0 10 -3 10 -7z m0 -58 c0 -9 -9 -15 -25 -15 -14
0 -25 4 -25 9 0 5 9 7 20 4 11 -3 20 0 20 6 0 6 2 11 5 11 3 0 5 -7 5 -15z
m-350 -56 c0 -6 7 -9 15 -5 12 4 14 -8 14 -74 -1 -76 -1 -78 -20 -62 -24 20
-24 31 -1 48 14 11 15 13 2 14 -9 0 -22 -6 -30 -12 -8 -7 -6 -3 4 9 12 15 16
28 11 40 -5 10 -7 24 -6 32 1 8 -2 10 -10 5 -8 -4 -10 -3 -5 4 9 15 26 15 26
1z m331 -34 c5 4 9 1 9 -5 0 -20 -25 -4 -26 16 -1 16 0 16 3 1 3 -9 9 -15 14
-12z m-29 -67 c-7 -7 -12 -8 -12 -2 0 14 12 26 19 19 2 -3 -1 -11 -7 -17z
m-487 2 c19 -8 19 -9 -2 -9 -12 -1 -25 4 -28 9 -7 12 2 12 30 0z m467 -67 c-1
-21 -7 -40 -13 -42 -8 -2 -8 -5 0 -11 8 -4 10 -17 5 -35 l-7 -28 -19 22 c-22
28 -23 57 -2 65 8 3 14 14 13 23 0 10 -1 29 0 43 1 18 4 21 13 12 6 -6 11 -28
10 -49z m-359 30 c-7 -2 -19 -2 -25 0 -7 3 -2 5 12 5 14 0 19 -2 13 -5z m406
-45 c0 -16 -2 -18 -6 -8 -3 8 -11 18 -17 22 -7 5 -4 8 7 8 11 0 17 -7 16 -22z
m-489 -64 c0 -2 -16 -4 -36 -4 -19 0 -33 4 -30 8 5 8 66 4 66 -4z m-73 -31
c-4 -3 -1 -13 6 -22 11 -14 10 -14 -6 -2 -16 13 -20 13 -28 0 -5 -8 -9 -9 -9
-3 0 13 21 34 34 34 5 0 6 -3 3 -7z m556 -10 c-7 -2 -19 -2 -25 0 -7 3 -2 5
12 5 14 0 19 -2 13 -5z m-313 -65 c0 -16 -3 -19 -11 -11 -6 6 -8 16 -5 22 11
17 16 13 16 -11z m122 -90 c21 5 22 4 9 -11 -10 -13 -11 -20 -2 -31 11 -13 5
-46 -8 -46 -7 0 -68 63 -105 107 -16 19 -17 25 -5 39 12 14 17 12 51 -24 29
-32 42 -39 60 -34z m79 -20 c1 -7 1 -19 0 -25 -1 -7 4 -11 11 -9 27 9 298 17
298 9 -1 -26 -24 -31 -190 -38 l-175 -7 0 31 c0 31 17 51 43 51 6 0 13 -6 13
-12z"/>
<path d="M1905 1800 c-3 -5 -19 -10 -34 -10 -37 0 -58 -18 -70 -63 -10 -39 -4
-107 10 -107 4 0 10 -8 12 -17 4 -15 6 -15 12 5 10 29 19 28 33 -4 7 -14 17
-22 23 -18 6 3 7 9 3 13 -11 7 -34 48 -34 58 0 4 5 2 12 -5 7 -7 19 -12 28
-11 10 0 11 2 3 6 -7 2 -13 13 -13 23 0 14 6 18 27 16 15 -2 29 -8 31 -15 2
-6 9 -8 14 -5 6 4 17 -1 24 -11 12 -16 10 -23 -12 -52 -14 -18 -22 -38 -19
-43 4 -6 3 -16 -2 -23 -5 -7 -15 -25 -22 -41 -10 -25 -10 -28 2 -17 8 6 19 24
23 39 7 26 8 25 14 -13 3 -22 4 -43 2 -47 -2 -5 -21 -8 -42 -8 -29 0 -42 5
-50 19 -8 16 -4 24 22 46 22 18 28 29 20 37 -7 7 -19 4 -41 -11 -18 -13 -32
-17 -36 -11 -4 6 -10 8 -15 5 -4 -3 -13 2 -20 10 -7 8 -19 15 -27 15 -8 0 -40
12 -71 26 -74 34 -154 65 -157 62 -1 -2 1 -50 6 -108 4 -58 8 -124 8 -148 1
-42 2 -43 64 -73 l62 -31 2 -151 c1 -84 5 -186 10 -227 10 -96 6 -152 -12
-148 -7 2 -52 -35 -100 -81 l-86 -84 16 -34 c9 -18 13 -38 10 -43 -3 -6 -1
-10 4 -10 6 0 11 4 11 10 0 6 69 9 180 7 151 -2 180 -4 180 -17 0 -8 38 23 84
69 46 46 88 81 94 77 9 -6 134 -9 245 -7 l47 1 0 39 c0 47 -8 71 -24 71 -6 1
-23 17 -38 37 -24 31 -28 46 -28 99 l0 62 41 16 c31 13 39 20 34 34 -4 16 -1
18 22 15 43 -7 78 35 69 81 -7 39 -55 96 -81 96 -14 0 -15 6 -9 33 11 47 7
181 -6 235 -17 70 -57 123 -115 151 -28 13 -57 28 -65 33 -8 5 -22 11 -31 14
-8 3 -23 19 -33 35 -9 16 -23 29 -31 29 -7 0 -27 13 -43 30 -45 44 -121 66
-137 40z m110 -116 c23 -17 49 -26 82 -28 59 -4 127 -32 117 -48 -5 -8 -2 -9
10 -5 23 9 59 -16 88 -61 35 -53 41 -82 17 -82 -21 0 -119 -85 -119 -104 0 -5
24 13 53 41 44 43 55 50 75 42 35 -13 26 -41 -25 -76 -35 -25 -42 -33 -27 -33
12 0 29 9 39 20 32 36 38 24 32 -60 -7 -90 -39 -176 -68 -185 -10 -4 -19 -11
-19 -17 0 -7 -18 -9 -51 -5 -37 5 -57 2 -75 -9 -21 -14 -26 -14 -56 2 -33 17
-158 28 -158 14 0 -12 42 -20 68 -13 21 5 23 3 20 -23 -2 -21 -16 -39 -51 -64
-26 -19 -43 -36 -37 -38 5 -2 25 9 45 23 l35 27 -1 -63 c-1 -84 -10 -111 -39
-126 -29 -14 -32 -63 -6 -92 17 -19 17 -21 -5 -50 -13 -17 -31 -31 -40 -31
-10 0 -24 -3 -32 -6 -12 -4 -12 6 4 62 19 69 14 89 -18 77 -7 -3 -13 0 -13 6
0 9 -5 9 -21 1 -30 -17 -34 -5 -10 29 14 20 28 28 39 25 10 -3 7 2 -8 13 -13
10 -32 26 -41 35 -10 9 -20 14 -24 10 -3 -3 4 -14 17 -23 22 -17 22 -18 5 -53
-23 -50 -37 -45 -36 13 1 27 -1 54 -5 59 -9 15 4 63 15 56 5 -3 7 -9 5 -13 -7
-10 52 -67 60 -59 3 3 -12 30 -32 60 -23 32 -30 46 -16 34 29 -26 40 -13 13
15 -12 13 -21 26 -21 31 0 4 -4 8 -10 8 -5 0 -10 -10 -10 -22 0 -19 -2 -20
-10 -8 -5 8 -10 30 -10 49 0 29 2 32 15 21 13 -11 14 -10 9 5 -6 14 -3 16 14
10 20 -6 22 -3 22 42 0 31 -3 43 -9 34 -6 -10 -11 -6 -20 15 l-11 29 3 -33 c4
-40 -10 -53 -19 -17 -3 13 -10 22 -15 19 -5 -3 -9 -1 -9 4 0 6 7 12 15 16 9 3
15 18 15 36 l0 30 45 -22 c25 -12 45 -26 45 -30 0 -11 -14 -10 -26 2 -12 12
-39 -4 -30 -19 4 -6 12 -9 17 -6 5 4 9 -1 9 -11 0 -12 6 -15 23 -10 12 3 32 6
44 6 12 0 34 10 50 23 18 14 41 22 65 22 31 0 38 4 38 19 0 15 3 16 15 6 8 -6
20 -10 27 -7 8 4 5 8 -9 12 -13 4 -23 12 -23 17 0 6 22 40 49 77 27 36 58 85
70 108 23 47 55 73 88 73 12 0 25 5 28 10 4 6 -7 10 -24 10 -37 0 -81 -38
-110 -95 -26 -49 -139 -177 -151 -170 -18 11 -90 128 -90 146 0 23 35 26 44 4
6 -16 74 -50 83 -41 3 2 -14 14 -37 26 -43 22 -43 22 -19 34 19 10 32 10 63
-1 46 -16 46 -16 46 -4 0 5 -13 12 -30 16 -16 4 -32 10 -35 15 -7 11 20 72 28
63 4 -3 7 1 7 10 0 9 20 33 45 53 24 21 43 40 41 42 -8 8 -49 -21 -78 -54 -37
-42 -44 -38 -23 11 17 42 15 54 -5 30 -7 -8 -15 -42 -19 -75 -4 -33 -14 -68
-23 -76 -14 -14 -16 -12 -21 23 -7 52 -11 67 -19 73 -4 3 6 21 23 39 l30 33
-26 33 c-40 53 -33 59 20 19z m-433 -94 c-6 -41 -12 -38 -12 6 0 19 4 33 8 30
5 -3 7 -19 4 -36z m88 -16 c0 -9 -5 -12 -12 -8 -8 5 -10 -9 -6 -54 4 -35 2
-64 -4 -70 -21 -21 0 -58 43 -77 22 -10 52 -32 66 -49 14 -17 22 -25 18 -17
-5 9 -3 12 6 9 8 -3 13 -10 12 -16 -1 -5 4 -13 13 -16 8 -3 12 -2 9 4 -3 6 1
10 10 10 28 0 10 -25 -18 -26 -14 -1 -24 3 -21 7 3 5 -2 9 -10 9 -9 0 -16 5
-16 11 0 12 -106 63 -117 56 -5 -3 -9 23 -9 56 -1 34 -5 75 -9 91 -5 19 -2 39
8 62 17 35 37 45 37 18z m-60 -16 c0 -16 -3 -19 -11 -11 -6 6 -8 16 -5 22 11
17 16 13 16 -11z m160 -47 c25 -13 40 -26 33 -28 -12 -4 -143 48 -143 58 0 11
66 -7 110 -30z m-167 -103 c8 -5 6 -8 -5 -8 -16 0 -18 9 -16 73 l2 72 3 -65
c2 -35 9 -68 16 -72z m79 77 c-6 -34 -12 -32 -12 6 0 16 4 28 9 25 4 -3 6 -17
3 -31z m155 13 c-3 -8 -6 -5 -6 6 -1 11 2 17 5 13 3 -3 4 -12 1 -19z m-224
-39 c-5 -5 -9 3 -11 19 -1 24 0 25 9 9 7 -11 7 -23 2 -28z m141 21 c36 -15 44
-23 40 -37 -4 -10 4 -5 19 12 21 25 27 28 41 16 19 -16 78 -122 71 -129 -3 -3
-5 0 -5 6 0 6 -14 13 -31 17 -31 7 -33 9 -44 58 -5 23 -9 27 -20 17 -8 -6 -15
-19 -17 -29 -3 -17 -5 -17 -45 0 -31 13 -43 24 -43 39 0 11 -4 20 -10 20 -5 0
-10 7 -10 15 0 19 -1 19 54 -5z m-11 -74 c39 -17 42 -22 28 -45 -14 -22 -40
-6 -34 21 4 22 4 22 -11 4 -16 -19 -16 -19 -17 5 0 21 -1 22 -8 5 -7 -19 -8
-18 -15 5 -7 23 -8 23 -16 4 -8 -18 -9 -17 -9 7 -1 30 -4 30 82 -6z m107 -72
c0 -23 -5 -34 -14 -34 -23 0 -46 29 -38 48 6 16 7 16 10 0 5 -27 22 -21 22 8
0 14 4 23 10 19 6 -3 10 -22 10 -41z m-235 26 c3 -6 -1 -7 -9 -4 -18 7 -21 14
-7 14 6 0 13 -4 16 -10z m105 -50 c8 -5 12 -11 9 -14 -3 -3 -14 1 -25 9 -21
16 -8 20 16 5z m155 -9 c3 -5 1 -12 -5 -16 -5 -3 -10 1 -10 9 0 18 6 21 15 7z
m175 -45 c0 -3 -4 -8 -10 -11 -5 -3 -10 -1 -10 4 0 6 5 11 10 11 6 0 10 -2 10
-4z m-297 -26 c-3 -11 -7 -20 -9 -20 -2 0 -4 9 -4 20 0 11 4 20 9 20 5 0 7 -9
4 -20z m102 2 c-3 -3 -11 0 -18 7 -9 10 -8 11 6 5 10 -3 15 -9 12 -12z m-113
-100 c8 -9 6 -11 -8 -6 -18 5 -18 5 0 -10 17 -14 18 -16 3 -16 -9 0 -17 3 -18
8 0 4 -2 18 -4 32 -3 31 8 53 13 25 2 -11 9 -26 14 -33z m665 26 c37 -41 47
-68 33 -94 -17 -32 -37 -37 -72 -19 -23 11 -51 13 -125 8 -72 -5 -94 -3 -89 5
5 8 25 10 59 6 48 -5 55 -3 89 25 20 18 39 44 43 61 8 36 33 39 62 8z m-321
-100 c4 -7 3 -8 -4 -4 -8 4 -12 0 -12 -11 0 -11 -5 -24 -10 -29 -7 -7 -4 -16
10 -29 11 -10 20 -25 19 -34 0 -10 -3 -8 -9 7 -6 12 -18 22 -30 22 -17 0 -20
6 -20 40 0 31 3 38 15 34 8 -4 15 -1 15 5 0 14 17 14 26 -1z m-349 -93 c0 -8
-4 -12 -9 -9 -4 3 -8 9 -8 15 0 5 4 9 8 9 5 0 9 -7 9 -15z m317 -1 c22 -8 20
-27 -4 -42 -18 -11 -20 -10 -20 18 0 32 1 33 24 24z m211 -4 c-3 -5 -11 -10
-16 -10 -6 0 -7 5 -4 10 3 6 11 10 16 10 6 0 7 -4 4 -10z m-105 -30 c0 -5 -7
-10 -16 -10 -8 0 -12 5 -9 10 3 6 10 10 16 10 5 0 9 -4 9 -10z m-402 -51 c3
-12 2 -12 -6 0 -8 11 -10 11 -15 0 -4 -10 -6 -8 -6 4 -1 21 21 18 27 -4z m522
-54 c0 -11 -10 -15 -32 -14 -31 2 -31 2 -5 6 15 2 27 9 27 14 0 5 2 9 5 9 3 0
5 -7 5 -15z m45 -63 c-6 -6 -35 18 -35 29 0 5 9 1 20 -8 11 -9 17 -19 15 -21z
m-562 11 c-7 -2 -21 -2 -30 0 -10 3 -4 5 12 5 17 0 24 -2 18 -5z m382 -11 c-3
-3 -11 0 -18 7 -9 10 -8 11 6 5 10 -3 15 -9 12 -12z m62 12 c-3 -3 -12 -4 -19
-1 -8 3 -5 6 6 6 11 1 17 -2 13 -5z m-138 -82 c0 -16 -3 -21 -6 -12 -3 8 -10
18 -16 21 -12 8 1 31 14 24 5 -4 9 -18 8 -33z m-32 -18 c15 -14 10 -21 -48
-80 -53 -54 -65 -61 -73 -47 -6 11 -4 23 4 37 9 15 10 21 1 24 -6 2 -8 8 -5
13 4 6 11 6 19 -1 10 -8 21 -2 47 29 18 23 34 41 36 41 2 0 11 -7 19 -16z
m-140 -109 l2 -38 -97 6 c-53 4 -131 7 -172 7 -66 0 -77 3 -89 21 l-13 22 162
-8 c109 -5 160 -4 156 3 -12 21 5 41 27 33 17 -6 23 -18 24 -46z"/>
<path d="M2130 1582 c-22 -19 -30 -31 -22 -36 7 -4 12 -3 12 3 0 5 19 21 43
35 30 19 36 26 22 26 -12 0 -36 -13 -55 -28z"/>
<path d="M2060 1480 c0 -5 14 -10 30 -10 17 0 30 5 30 10 0 6 -13 10 -30 10
-16 0 -30 -4 -30 -10z"/>
<path d="M2260 1295 c0 -20 -5 -25 -24 -25 -14 0 -28 -5 -31 -10 -4 -7 6 -10
29 -8 34 2 36 4 36 35 0 18 -2 33 -5 33 -3 0 -5 -11 -5 -25z"/>
<path d="M2123 1216 l-28 -24 25 0 c14 1 40 -3 59 -7 25 -6 32 -5 27 3 -4 7
-15 12 -25 12 -25 0 -33 11 -20 27 19 23 -7 15 -38 -11z"/>
<path d="M1964 895 c-17 -13 -17 -14 -2 -15 9 0 20 5 23 11 11 17 0 20 -21 4z"/>
<path d="M1900 808 c0 -8 7 -15 15 -15 18 0 15 19 -3 25 -7 2 -12 -3 -12 -10z"/>
<path d="M1732 1450 c0 -14 2 -19 5 -12 2 6 2 18 0 25 -3 6 -5 1 -5 -13z"/>
<path d="M580 1632 c0 -5 12 -15 26 -23 15 -7 37 -29 50 -49 17 -25 24 -30 24
-16 0 10 -17 36 -39 57 -37 37 -61 49 -61 31z"/>
<path d="M540 1615 c0 -2 13 -11 29 -20 16 -8 36 -22 45 -30 14 -14 16 -14 16
-2 0 9 -15 25 -34 36 -31 20 -56 27 -56 16z"/>
<path d="M811 1601 c-8 -6 -9 -11 -3 -15 6 -3 14 -1 17 5 9 14 2 20 -14 10z"/>
<path d="M1910 1595 c0 -8 4 -15 10 -15 5 0 7 7 4 15 -4 8 -8 15 -10 15 -2 0
-4 -7 -4 -15z"/>
<path d="M620 1488 c0 -4 14 -8 30 -8 17 0 30 4 30 8 0 5 -13 9 -30 9 -16 0
-30 -4 -30 -9z"/>
<path d="M730 1412 c-44 -21 -44 -21 -38 -28 8 -7 74 21 82 35 10 15 -2 13
-44 -7z"/>
<path d="M467 1314 c-12 -33 2 -54 34 -54 16 0 29 5 29 10 0 6 -11 10 -24 10
-19 0 -25 6 -28 28 -3 25 -4 25 -11 6z"/>
<path d="M570 1240 c0 -5 5 -10 10 -10 6 0 10 -4 10 -10 0 -5 -11 -10 -24 -10
-14 0 -28 -5 -32 -12 -5 -8 3 -9 32 -4 21 4 48 8 59 7 17 0 16 4 -10 25 -32
26 -45 30 -45 14z"/>
<path d="M750 905 c7 -8 17 -15 22 -15 6 0 5 7 -2 15 -7 8 -17 15 -22 15 -6 0
-5 -7 2 -15z"/>
</g>
</svg>
