<?xml version="1.0" standalone="no"?>
<!DOCTYPE svg PUBLIC "-//W3C//DTD SVG 20010904//EN"
 "http://www.w3.org/TR/2001/REC-SVG-20010904/DTD/svg10.dtd">
<svg version="1.0" xmlns="http://www.w3.org/2000/svg"
 width="70.000000pt" height="70.000000pt" viewBox="0 0 70.000000 70.000000"
 preserveAspectRatio="xMidYMid meet">
<metadata>
Created by potrace 1.11, written by Peter Selinger 2001-2013
</metadata>
<g transform="translate(0.000000,70.000000) scale(0.100000,-0.100000)"
fill="#000000" stroke="none">
<path d="M40 490 c0 -62 23 -69 37 -12 8 35 11 37 48 37 l40 0 0 -155 0 -155
-27 -3 c-16 -2 -28 -8 -28 -13 0 -5 41 -9 91 -9 57 0 88 4 84 10 -3 6 -17 10
-31 10 l-24 0 0 160 0 160 40 0 c37 0 40 -2 50 -40 16 -59 40 -53 40 10 l0 50
-160 0 -160 0 0 -50z"/>
<path d="M400 433 c-38 -14 -41 -17 -23 -24 27 -10 37 -67 28 -149 -5 -42 -11
-60 -21 -60 -8 0 -14 -4 -14 -10 0 -6 32 -10 76 -10 47 0 73 4 69 10 -3 6 -15
10 -26 10 -17 0 -19 7 -19 79 0 65 4 83 21 105 20 26 22 26 40 10 32 -29 76 8
49 41 -19 23 -49 18 -80 -14 l-29 -28 -3 25 c-4 32 -13 34 -68 15z"/>
<path d="M590 231 c-25 -47 36 -83 64 -38 8 12 8 22 0 35 -16 25 -51 27 -64 3z"/>
</g>
</svg>
